<svg height="22" viewBox="0 0 34 22" width="34" xmlns="http://www.w3.org/2000/svg"><g fill="#ffffff" fill-rule="evenodd"><path d="m17 21.93c-11.443 0-16.617-10.085-16.832-10.514-.131-.262-.131-.57 0-.832.215-.429 5.389-10.514 16.832-10.514s16.617 10.085 16.832 10.514c.131.262.131.57 0 .832-.215.429-5.389 10.514-16.832 10.514zm-14.935-10.93c1.08 1.833 5.916 9.07 14.935 9.07s13.855-7.237 14.935-9.07c-1.08-1.833-5.916-9.07-14.935-9.07s-13.855 7.237-14.935 9.07z"/><path d="m17 19.93c-4.924 0-8.93-4.006-8.93-8.93s4.006-8.93 8.93-8.93 8.93 4.006 8.93 8.93-4.006 8.93-8.93 8.93zm0-16c-3.898 0-7.07 3.172-7.07 7.07s3.172 7.07 7.07 7.07 7.07-3.172 7.07-7.07-3.172-7.07-7.07-7.07z"/><path d="m17 15.93c-2.719 0-4.93-2.212-4.93-4.93 0-.514.416-.93.93-.93s.93.416.93.93c0 1.693 1.378 3.07 3.07 3.07s3.07-1.377 3.07-3.07-1.378-3.07-3.07-3.07c-.514 0-.93-.416-.93-.93s.416-.93.93-.93c2.719 0 4.93 2.212 4.93 4.93s-2.211 4.93-4.93 4.93"/></g></svg>
