<svg fill="none" height="128" viewBox="0 0 128 128" width="128" xmlns="http://www.w3.org/2000/svg"><path d="m41.9624 90.6022 4.0533-.3562.4971 7.6693h-3.4837z" fill="#dedad1"/><path d="m98.3464 84.3559h-4.6869v3.6864h4.6869z" fill="#dedad1"/><path d="m96.8381 97.9153c-.6058-.0768-.8298-.4544-.6826-.9323-1.0283.0726-.495-11.9808 2.1909-11.6586 3.0466-2.0011 4.6746-.4822 5.3336.8085.804 1.8795.589 3.7227-.214 5.5467-.9 2.0629-2.368 3.6885-4.0295 5.1498-.7316.6241-1.6402 1.0038-2.5984 1.0859z" fill="#f3d9c4"/><path d="m96.0936 87.447c1.1222-.1856-.657 8.5568-1.649 11.1936-.4992 4.9064-22.0459 18.0604-24.6763 15.2554-3.2619.928-19.1083-8.64-22.6133-11.985-3.0208-1.131-3.6715-12.3029-2.6027-9.7216-.6784-4.5738 34.5024-38.8074 36.0341-38.9525 2.8331-8.7147 17.056 18.0224 15.5072 34.2101z" fill="#f3d9c4"/><path d="m40.2621 32.7526c.1088.256-5.457 6.4363-5.713 6.2358-1.344-1.6256-1.9776-3.5776-2.5323-5.5595-.3132-1.16-.5575-2.3375-.7317-3.5264-.1092-.7526.0278-1.5203.3904-2.1888.0601-.0312.1262-.0495.1938-.0535.0677-.004.1355.0063.1989.0303s.121.061.1692.1088c.0481.0477.0856.1051.1101.1683.9344 1.8944 2.7242 2.6965 4.48 3.552.8768.4266 1.8368.6186 2.7477.9493.2155.0789.4757.1856.6869.2837z" fill="#ddd9d0"/><path d="m66.2824 24.9105c.32.64 32.143 9.2309 32.64 7.9851.4971-1.2459-2.8096-9.6-3.6266-10.6667-1.0304-1.7067-3.3067-4.0171-6.9697-2.9163-1.3568.3712-3.52.9963-4.0128 1.3142-.8234.2858 1.4166-3.84-.113-8.1067-.2496-.4629-1.0475-.4971-2.0267 0-3.3067 4.0171-5.5104 4.6229-10.0267 5.12-4.3008.3584-5.2608 5.2843-5.8645 7.2704z" fill="#dedad1"/><path d="m54.052 34.4102c-.9195 0-23.5456 19.2641-23.6949 19.2534.1104-3.0585.5539-6.0958 1.3226-9.0582 1.3206-5.5253 6.1035-10.1994 10.8416-13.5637 1.5808-1.2373 3.3856-2.0416 5.2118-2.8331 2.1141-.9152 4.2666-1.6938 6.5365-2.1034 4.8277-.9707 15.4944-1.7067 21.2672-.9067 5.0155.5867 9.9584 1.5317 14.688 3.3579 5.0347 1.9029 10.6662 4.8362 14.1312 9.4571 2.163 2.5089 3.628 5.5421 4.25 8.7957.618 3.2741.894 6.6037.823 9.9349-.06 3.5926-.64 7.1296-1.517 10.6155-.051.2133-1.514 4.9515-2.061 5.9904-.198.4175-.481.7889-.832 1.0901-.464-1.034-.779-2.1286-.936-3.2512-.322-2.1845-.358-4.352.25-6.5173.526-1.9456-.114-8.416-.485-9.7664-.772-2.993-2.004-5.848-3.652-8.4629-1.1968-1.9393-2.56-3.7569-4.288-5.2566l-.1856-.1834c-1.2075-1.216-2.6816-2.0737-4.0853-3.0273-4.8726-3.3088-10.2806-5.0496-16.1195-5.5466-4.8619-.5995-17.9477-.4224-21.4656 1.9818z" fill="#fdc720"/><path d="m96.0936 87.4449c-.2944 3.0507-2.2677 10.6347-2.3744 11.3067-.1941 1.1882-.8171 2.0924-1.6832 2.8774-1.1204.984-2.3026 1.894-3.5392 2.727-4.4376 3.135-9.0929 5.951-13.9307 8.424-1.5082.76-3.0613 1.319-4.8 1.125-1.4814-.178-2.9231-.6-4.2666-1.248-1.9822-.96-3.9056-2.038-5.76-3.226-3.4304-2.144-6.8054-4.38-10.1931-6.588-.6229-.405-1.2181-.853-1.8005-1.316-.9494-.749-1.4934-1.7514-1.9371-2.8714-.64-1.6662-.64-3.4454-1.0432-5.152-.0896-.3798-.1536-.9195-.2133-1.3056-.3584.1664-.7147.3285-1.0667.48.064.8256.6827 4.1642.8533 5.1797.2966 1.3099.6208 2.4533.8768 2.8673.3161.659.7788 1.237 1.3526 1.69 3.7377 2.704 7.6112 5.215 11.6053 7.524 2.7925 1.738 5.2885 3.274 6.4661 4.002 3.0038 1.882 6.9846 1.92 11.1808.034 5.0006-2.692 17.2438-10.846 18.3126-11.829.6547-.549 1.1432-1.269 1.4101-2.08.2005-.6403 2.7072-14.1059 2.8139-14.7203-.6959.7604-1.4529 1.4625-2.2635 2.0992z" fill="#706f6a"/><path d="m106.4 80.5457c-.331-.64-.525-1.3099-.837-1.9392-1.009-2.0501-1.565-4.2475-2.067-6.4555-.45-1.9797-.256-4.0213-.377-6.0309-.19-5.6128-.073-7.9595-1.112-11.5648-.589-1.8965-1.258-3.7632-2.2376-5.4997-1.4934-2.6411-3.2598-5.0496-5.6214-7.0102-1.1989-.9941-2.2976-2.097-3.6139-2.9589-2.268-1.4623-4.7414-2.5782-7.3386-3.3109-2.4619-.7211-5.0027-.9003-7.5136-1.2992-2.4-.3819-4.8235-.3115-7.2235-.1622-2.9686.181-5.9024.7366-8.7317 1.6534-.2006.0661-.4075.1152-.6144.1749-1.28-.4096-2.4363-1.1541-3.7397-1.5125-.1793-.0491-2.1761-.3648-3.0977-.5077-1.1314-.1603-2.279-.1711-3.4133-.032-.8768.096-1.5957.576-2.2656 1.105-2.6276 2.1208-5.0135 4.5247-7.1147 7.168-2.3914 2.9462-4.7125 5.9499-7.0741 8.9195-.5291.6656-1.1029 1.2949-1.6576 1.9413-1.7301 1.9648-5.1264 4.5078-8.9685 4.5547-.4608-.0107-.9238 0-1.3867 0-.3669 0-.7083.0554-.9685.4373-.0363.6955.5034 1.0944.9536 1.5125 2.0949 1.9499 4.6016 3.0166 7.424 3.3792.0836.0194.1656.045.2453.0769.241.5757.3482 1.1986.3136 1.8218 0 2.2421.3925 4.4544.9621 6.5835.527 1.969 1.1008 3.9381 1.6704 5.9029.2257.7473.3506 1.5215.3712 2.3019v1.8154c.3179.2923.4992.0982.6699.015.8533-.4267 1.7344-.8278 2.56-1.3056.7015-.3768 1.3176-.8943 1.8099-1.5202s.85-1.3466 1.0509-2.1172c.5227-1.8624.7125-3.744.9749-5.632.3051-2.2058.6998-4.401.9643-6.6133.2389-2.0032.5909-3.9872.9365-5.9733.079-.4523.1771-.9003.2646-1.3504.3136-1.3398.4544-2.7222.9685-4.015.3797-.9536.7147-1.92 1.1371-2.8608.6165-1.361 1.6917-2.3744 2.8288-3.2746 3.1565-2.4923 6.8878-4.1529 10.8523-4.8299 1.6703-.3008 3.3493-.529 5.024-.7829.4358-.0717.8804-.0717 1.3162 0-1.0667.3755-1.8347.4266-2.6539.5888-2.264.4259-4.4681 1.1243-6.5642 2.08-1.92.9066-3.8827 1.7386-5.6107 3.0101-.6489.4875-1.2626 1.02-1.8368 1.5936-1.2267 1.2011-1.5893 2.816-2.0907 4.3584-1.1861 3.6523-1.9925 9.2608-2.6026 13.4571-.3222 2.2357-.6976 4.465-.9686 6.7072-.1365 1.1221-.3349 2.24-.4266 3.36-.0939 1.28-.736 2.2101-1.551 3.0485-.7888.8138-1.6366 1.5682-2.5365 2.2571-1.2651.9664-2.6069 1.8325-3.8997 2.7605-3.488 2.1589-10.2614 3.6267-12.3584 3.0123-.8704-.2667-1.1734 0-1.0304.96.32 1.8496 5.4208 4.1045 6.7498 4.3925 1.6918.3648 3.3622.8064 5.0432 1.1243 1.0518 4.6506-.4501 16.4926-5.3226 21.5786 7.1829-1.813 17.5936-11.872 19.2576-17.7834-.1664-1.0155-.7851-4.3542-.8534-5.1798.3542-.1536.7104-.3136 1.0667-.48 6.8139-3.168 14.3104-8.7466 18.56-13.9968 1.5894-2.0288 3.2406-4.0085 4.832-6.0394 2.063-2.6347 3.6757-5.5467 5.4229-8.3627.2134-.3307.4011-.6699.64-.9792 1.0304-1.3611 1.696-2.9333 2.56-4.3883 1.0667-1.8048 2.2614-3.5114 3.7888-4.9642.0738-.0751.1515-.1463.2326-.2134 1.1541-.8874 1.841-.9087 2.4085.6678 1.2288 3.4133 2.496 6.8266 3.9253 10.1802 1.0283 2.4107 2.0843 4.832 3.6267 6.9547 1.3014 1.7984 4.2667 5.4955 4.3947 5.6576-.1344 1.0283-.4267 10.8501-.0384 11.5477.4235-.228.8242-.4958 1.1968-.8.8134-.6481 1.5719-1.3623 2.2677-2.1354.9323-1.0368 1.6235-2.0608 1.536-2.5771l-.5098-.8725c-.5568-.7296-2.6454-3.68-3.4006-4.9067.3456.3164.7182.6019 1.1136.8533 1.3419.7936 2.6539 1.6363 4.017 2.3936 2.016 1.12 4.053 2.2059 6.289 2.8352.213.0598.448.2134.687-.0704-.734-.6976-1.222-1.5509-1.685-2.4341z" fill="#dedad1"/><g fill="#3b3a41"><path d="m57.4483 87.4023c.273-.1984.544-.4267.8341-.6016.9408-.5931 1.92-.6272 2.8331.593.4992.6699.6592 1.4614.8533 2.2251.4608 1.7856.4373 3.5712-.3008 5.2992-.3069.7236-.8784 1.3027-1.5979 1.6192-1.1285.5312-2.3317.1557-2.8394-.975-.3356-.7031-.5519-1.4573-.64-2.2314-.1046-1.1606-.2496-2.3211-.0704-3.5392-1.103-.7915-1.8518-1.8965-2.5238-3.0613-.1898-.6123-.0384-.7638.0747-1.4038.4949.4587 3.1083 2.2891 3.3771 2.0758z"/><path d="m78.8712 92.9489c-.047-1.4933-.0704-2.9867.4928-4.4053.1725-.5032.4325-.9719.768-1.3846.7296-.8256 1.3504-.9493 2.3616-.5056.3807.189.7386.4209 1.0666.6912 1.408-.2133 2.3126-1.4144 3.7696-1.9562-.2453 1.9989-1.4634 3.2-2.7242 4.4288.1179 1.4666.0121 2.9427-.3136 4.3776-.2134.8938-.4758 1.7685-1.3568 2.3104-.247.1704-.5335.2748-.8322.3032-.2988.0284-.5998-.0202-.8745-.1411-.4646-.1788-.8844-.4571-1.2301-.8153-.3456-.3582-.6088-.7876-.7709-1.2583-.1799-.4635-.2913-.9508-.3307-1.4464z"/><path d="m77.2904 77.2988c-.1131-.3072-.2389-.5291-.1088-.9024 1.7429-.7147 3.5904-1.2416 5.5787-1.0838.5077.0406.9344.3414 1.3226.64 1.1823.9648 2.2047 2.1103 3.0294 3.3942.1514.2261.2538.4267-.0278.7019-.3861 0-.64-.3008-.9344-.5355-.7782-.6139-1.5948-1.1775-2.4448-1.6875-.6084-.3969-1.2898-.6686-2.0044-.7994-.7146-.1307-1.4481-.1179-2.1577.0378-.7189.1536-1.4571.3606-2.2528.2347z"/></g><path d="m75.0995 100.416c-.4267 1.785-1.4165 3.2-3.2 3.626-2.1611.525-4.2325.139-5.888-1.549-.5465-.59-.9161-1.321-1.0667-2.112.1728-.102.2496-.029.2944.062.736 1.53 2.0843 2.065 3.6438 2.155 1.28.075 2.5599.096 3.7802-.395.9707-.388 1.8325-.911 2.4277-1.798z" fill="#de9282"/></svg>